<svg width="86" height="51" viewBox="0 0 86 51" fill="none" xmlns="http://www.w3.org/2000/svg">
<path d="M75.5 13.4376C81.0749 10.9681 83.2745 8.29145 85.5 1.93762C84.746 8.04079 84.2256 11.4547 82 17.4376C80.5151 21.767 79.4794 24.015 77 27.4376C73.0092 32.7951 70.6881 35.7179 65.5 39.9376C58.5572 45.614 54.1066 48.0851 45 50.9376C52.0034 44.3534 57.3841 41.2272 60 32.9376C60.8367 26.8952 61.5685 23.3378 56 21.4376C51.4269 20.7468 48.6657 21.9626 43.5 25.9376C47.6569 18.3497 50.2905 14.1729 60.5 14.4376C66.8149 14.7039 70.2969 14.829 75.5 13.4376Z" fill="#8CC63F" stroke="#8CC63F" stroke-width="0.1"/>
<path d="M73.5912 5.98715C74.0629 8.98785 72.4551 11.7333 70 12.1193C67.5449 12.5053 64.326 9.95111 63.8542 6.95041C63.3825 3.9497 64.9903 1.20423 67.4454 0.818234C69.9005 0.432232 73.1194 2.98644 73.5912 5.98715Z" fill="#8CC63F"/>
<path d="M23.5036 14.6192C32.3826 15.9896 36.6774 18.4142 43.0036 26.1192C37.4158 23.8447 34.152 21.4347 29.0036 23.1192C26.2823 24.0209 24.5719 25.2735 24.5036 28.6192C24.4304 32.5817 25.0295 34.6871 28.0036 38.1192C33.1064 43.3005 36.8296 45.9798 44.0036 50.6192C33.6313 47.1359 27.2636 46.4502 19.0036 38.1192C14.9671 34.1255 12.2612 32.5608 9.50356 26.6192C7.85358 23.4012 6.92077 20.3505 10.0036 17.6192C14.0084 14.3855 16.703 13.3065 23.5036 14.6192Z" fill="#056839" stroke="#056839" stroke-width="0.1"/>
<path d="M11.5 7.61932C13.0387 10.2914 11.9755 14.1777 9.94889 15.3447C7.92229 16.5117 4.53913 15.2914 3.00043 12.6193C1.46173 9.94728 2.52495 6.06101 4.55155 4.89399C6.57815 3.72698 9.9613 4.94726 11.5 7.61932Z" fill="#056839"/>
<path d="M33.8328 36.455H37.8378V38H32.0628V28.265H33.8328V36.455ZM44.1799 30.95C44.0199 30.1 43.4199 29.675 42.3799 29.675C41.8699 29.675 41.4699 29.78 41.1799 29.99C40.8999 30.19 40.7599 30.435 40.7599 30.725C40.7599 31.015 40.8499 31.245 41.0299 31.415C41.2199 31.575 41.5099 31.725 41.8999 31.865L44.0149 32.69C44.7349 32.97 45.2899 33.325 45.6799 33.755C46.0699 34.175 46.2649 34.705 46.2649 35.345C46.2649 36.225 45.9349 36.925 45.2749 37.445C44.6149 37.955 43.6749 38.21 42.4549 38.21C41.3749 38.21 40.4999 37.945 39.8299 37.415C39.0799 36.835 38.6849 36.015 38.6449 34.955H40.3999C40.3999 35.755 40.8149 36.26 41.6449 36.47C41.8949 36.54 42.2249 36.575 42.6349 36.575C43.0449 36.575 43.4249 36.475 43.7749 36.275C44.1249 36.065 44.2999 35.79 44.2999 35.45C44.2999 35.1 44.2049 34.835 44.0149 34.655C43.8249 34.465 43.5149 34.29 43.0849 34.13L41.1499 33.365C40.3999 33.075 39.8249 32.735 39.4249 32.345C39.0249 31.955 38.8249 31.415 38.8249 30.725C38.8249 29.915 39.1399 29.275 39.7699 28.805C40.4099 28.315 41.2749 28.07 42.3649 28.07C43.4649 28.07 44.3099 28.325 44.8999 28.835C45.4999 29.335 45.8449 30.04 45.9349 30.95H44.1799ZM51.7154 28.07C52.3154 28.07 52.8354 28.145 53.2754 28.295C53.7154 28.435 54.0954 28.635 54.4154 28.895C55.0454 29.405 55.4554 30.12 55.6454 31.04L53.7554 31.385C53.5954 30.875 53.3454 30.465 53.0054 30.155C52.6754 29.835 52.2604 29.675 51.7604 29.675C51.0804 29.675 50.5304 29.96 50.1104 30.53C49.6604 31.15 49.4354 32.01 49.4354 33.11C49.4354 34.2 49.6354 35.055 50.0354 35.675C50.4354 36.285 50.9804 36.59 51.6704 36.59C52.3604 36.59 52.8804 36.425 53.2304 36.095C53.5804 35.755 53.7554 35.32 53.7554 34.79H55.6604C55.6604 35.88 55.3104 36.725 54.6104 37.325C53.9204 37.915 52.9704 38.21 51.7604 38.21C50.4704 38.21 49.4454 37.76 48.6854 36.86C47.9154 35.94 47.5304 34.69 47.5304 33.11C47.5304 31.51 47.9254 30.26 48.7154 29.36C49.4754 28.5 50.4754 28.07 51.7154 28.07Z" fill="#75797B"/>
</svg>
